<svg width="43" height="36" viewBox="0 0 43 36" fill="none" xmlns="http://www.w3.org/2000/svg">
<path d="M40.0906 0.46875H2.90937C1.49375 0.46875 0.349998 1.6125 0.349998 3.02813V22.0875C0.349998 23.5031 1.49375 24.6469 2.90937 24.6469H7.22187V19.65H35.7875V24.6469H40.1C41.5156 24.6469 42.6594 23.5031 42.6594 22.0875V3.0375C42.6594 1.62188 41.5062 0.46875 40.0906 0.46875ZM31.4094 7.78125C30.5 7.78125 29.7687 7.05 29.7687 6.14062C29.7687 5.23125 30.5 4.5 31.4094 4.5C32.3188 4.5 33.05 5.23125 33.05 6.14062C33.05 7.05 32.3188 7.78125 31.4094 7.78125ZM37.25 7.78125C36.3406 7.78125 35.6094 7.05 35.6094 6.14062C35.6094 5.23125 36.3406 4.5 37.25 4.5C38.1594 4.5 38.8906 5.23125 38.8906 6.14062C38.8906 7.05 38.15 7.78125 37.25 7.78125Z" fill="#808083"/>
<path d="M21.5 31.7813C24.2938 31.7813 26.9375 30.5719 28.7656 28.4625C29 28.1906 28.9719 27.7781 28.7 27.5344C28.4281 27.3 28.0156 27.3281 27.7719 27.6C26.1875 29.4188 23.9 30.4688 21.4906 30.4688C19.0813 30.4688 16.7937 29.4281 15.2094 27.6C14.975 27.3281 14.5531 27.3 14.2813 27.5344C14.0094 27.7688 13.9813 28.1906 14.2156 28.4625C16.0625 30.5719 18.7063 31.7813 21.5 31.7813Z" fill="#007AFF"/>
<path d="M31.5312 29.9907C31.2594 29.7563 30.8469 29.7844 30.6031 30.0563C28.3063 32.7001 24.9875 34.2188 21.5 34.2188C18.0125 34.2188 14.6937 32.7001 12.3969 30.0563C12.1625 29.7844 11.7406 29.7563 11.4688 29.9907C11.1969 30.2251 11.1688 30.6469 11.4031 30.9188C13.9531 33.8438 17.6281 35.5313 21.5 35.5313C25.3719 35.5313 29.0469 33.8532 31.5969 30.9188C31.8313 30.6376 31.8031 30.2251 31.5312 29.9907Z" fill="#007AFF"/>
</svg>
