<svg width="55" height="44" viewBox="0 0 55 44" fill="none" xmlns="http://www.w3.org/2000/svg">
<path d="M15.2808 16.7168C13.9936 16.7433 12.7849 16.0401 12.1918 14.8347L11.8963 14.2341H6.73643L6.87564 13.6009C6.25646 13.5667 5.66801 13.2999 5.20706 12.8352C4.67296 12.2972 4.32738 11.5343 4.16163 10.5266L2.61755 17.5449L2.6443 24.041C1.12836 24.3996 0 25.7604 0 27.3858C0 29.2844 1.53893 30.8233 3.4375 30.8233H5.82785C5.82785 26.6009 9.2631 23.1657 13.4855 23.1657C14.8385 23.1657 16.1096 23.5198 17.2138 24.138V16.6811L15.2808 16.7168Z" fill="#808083"/>
<path d="M32.4409 2.50952C31.9158 1.57184 30.9223 0.989502 29.8477 0.989502H14.6752C15.2249 1.94201 15.1498 3.1924 14.958 4.30067H19.1921C20.1175 3.14739 21.5372 2.40704 23.1276 2.40704C24.7179 2.40704 26.1377 3.14739 27.0631 4.30067H29.6492L35.064 13.9703C35.0111 13.4765 35.0698 12.9019 35.3269 12.2394C35.6073 11.5167 36.1988 10.9309 36.9098 10.4895L32.4409 2.50952Z" fill="#808083"/>
<path d="M37.82 22.4462C37.4525 21.9366 37.1682 21.4534 36.9475 20.9958L32.6002 22.4655C31.3223 22.8979 29.9626 22.5163 29.082 21.5984C29.082 28.8997 29.0876 24.4125 29.0876 30.8233H35.0909C35.0909 27.8689 36.7736 25.3019 39.23 24.0254C38.7605 23.6253 38.2919 23.1005 37.82 22.4462Z" fill="#808083"/>
<path d="M52.7084 24.1447C52.7084 23.6131 52.7084 23.0675 52.7084 22.5187H50.216C48.9875 22.5187 47.9917 21.5229 47.9917 20.2944C47.9917 19.0659 48.9875 18.0701 50.216 18.0701H52.365C51.5563 15.8221 49.4059 14.2141 46.8794 14.2141H44.6626C45.026 15.4781 45.2371 17.1143 44.5272 18.4315C43.9291 19.5413 44.0492 21.8123 44.0492 22.3907C44.0492 22.6952 43.9986 22.9844 43.9093 23.2538C47.5829 23.8147 50.4062 26.9956 50.4062 30.8236C50.8298 30.8236 51.1576 30.8236 51.5626 30.8236C53.461 30.8236 55.0001 29.2844 55.0001 27.3861C55 25.8893 54.0433 24.6167 52.7084 24.1447Z" fill="#808083"/>
<path d="M13.4856 25.5801C10.5899 25.5802 8.24237 27.9277 8.24237 30.8234C8.24237 33.7192 10.5899 36.0667 13.4856 36.0667C14.9207 36.0667 16.2205 35.4897 17.1672 34.5557V27.0912C16.2204 26.157 14.9206 25.5801 13.4856 25.5801ZM13.4856 32.9472C12.3127 32.9472 11.3619 31.9964 11.3619 30.8234C11.3619 29.6505 12.3127 28.6997 13.4856 28.6997C14.6586 28.6997 15.6094 29.6505 15.6094 30.8234C15.6094 31.9964 14.6586 32.9472 13.4856 32.9472Z" fill="#808083"/>
<path d="M42.7484 25.5801C39.8527 25.5801 37.5052 27.9276 37.5052 30.8233C37.5052 33.7191 39.8526 36.0666 42.7484 36.0666C45.6442 36.0666 47.9917 33.7191 47.9917 30.8233C47.9916 27.9276 45.6442 25.5801 42.7484 25.5801ZM42.7484 32.9471C41.5755 32.9471 40.6247 31.9963 40.6247 30.8233C40.6247 29.6504 41.5755 28.6996 42.7484 28.6996C43.9214 28.6996 44.8722 29.6504 44.8722 30.8233C44.8722 31.9963 43.9214 32.9471 42.7484 32.9471Z" fill="#808083"/>
<path d="M41.3117 11.6592C41.0487 11.4165 40.6564 11.3142 40.2131 11.3142C38.9647 11.3142 37.3132 12.1256 37.0148 12.8946C36.8136 13.4131 36.8259 13.7886 36.9427 14.0988C38.3547 14.1339 39.5977 15.0433 40.052 16.3874C40.5626 17.8976 39.9371 19.5218 38.6383 20.3295C38.8068 20.6615 39.019 21.0129 39.2887 21.3869C40.2548 22.7267 41.0205 23.1805 41.5293 23.1805C41.9881 23.1805 42.238 22.8116 42.238 22.3906C42.238 21.6623 42.0836 19.1479 42.9329 17.5723C43.7821 15.9966 42.3152 12.5855 41.3117 11.6592Z" fill="#808083"/>
<path d="M13.2387 2.23474C12.9766 0.894223 9.98465 0.0899558 9.04246 0.691626C7.54177 1.64994 8.67314 2.71814 8.03699 3.84779C7.40073 4.97744 5.88124 5.74497 5.8575 8.8862C5.84096 11.07 6.45681 11.7972 7.01014 11.7972C7.25281 11.7972 7.48344 11.6573 7.64339 11.439C7.9171 11.0654 8.56733 10.073 9.41994 9.2018L9.29662 8.95129C8.4758 7.28346 9.16492 5.25877 10.8329 4.43786C11.5437 4.08798 12.3479 3.997 13.1381 4.19175C13.29 3.41037 13.3277 2.69075 13.2387 2.23474Z" fill="#808083"/>
<path d="M38.3366 16.9673C38.3365 16.967 38.3364 16.9665 38.3363 16.9662C38.061 16.1529 37.1708 15.7127 36.3588 15.9888C34.8009 16.5154 33.8065 16.8517 32.2002 17.3946C31.7161 16.6044 30.5417 14.6874 29.9841 13.7776C29.2052 12.5063 27.795 11.7167 26.3041 11.7167C17.3572 11.7167 19.8356 11.7001 16.1791 11.7676C15.7064 10.807 14.1975 7.74082 13.7214 6.77327C13.3385 5.99467 12.3958 5.68637 11.6323 6.06214C10.859 6.44273 10.5406 7.37795 10.921 8.15117C12.694 11.7541 12.1705 10.6904 13.8165 14.035C14.084 14.5785 14.6499 14.9207 15.2454 14.9062C19.2477 14.8322 18.9269 14.8374 19.0247 14.8374C19.0247 14.8649 18.978 23.9352 18.978 41.6383C18.978 42.6725 19.8164 43.5108 20.8505 43.5108C21.8844 43.5108 22.7229 42.6725 22.7229 41.6383C22.7229 40.0487 22.7229 29.79 22.7229 28.1215H23.5314C23.5314 29.7907 23.5314 40.0447 23.5314 41.6383C23.5314 42.6725 24.3698 43.5108 25.4039 43.5108C26.438 43.5108 27.2763 42.6725 27.2763 41.6383C27.2763 35.7441 27.2711 22.2913 27.2709 15.9259C27.2709 15.8498 27.3215 15.783 27.3947 15.7622C27.468 15.7415 27.5462 15.7719 27.586 15.8368C27.9172 16.3766 28.6299 17.5415 30.1893 20.0868C30.5693 20.7067 31.3283 20.984 32.0199 20.75C35.3706 19.6173 33.7642 20.1603 37.3581 18.9452C38.1759 18.669 38.6119 17.7821 38.3366 16.9673Z" fill="#007AFF"/>
<path d="M23.1278 10.7505C24.9497 10.7505 26.4266 9.27354 26.4266 7.45165C26.4266 5.62976 24.9497 4.15283 23.1278 4.15283C21.3059 4.15283 19.829 5.62976 19.829 7.45165C19.829 9.27354 21.3059 10.7505 23.1278 10.7505Z" fill="#808083"/>
</svg>
