<svg width="51" height="42" viewBox="0 0 51 42" fill="none" xmlns="http://www.w3.org/2000/svg">
<path d="M44.9792 0.375H6.02082C5.41304 0.375 4.83014 0.616443 4.40037 1.04621C3.9706 1.47598 3.72916 2.05888 3.72916 2.66667V30.1667C3.72916 30.7745 3.9706 31.3574 4.40037 31.7871C4.83014 32.2169 5.41304 32.4583 6.02082 32.4583H44.9792C45.5869 32.4583 46.1698 32.2169 46.5996 31.7871C47.0294 31.3574 47.2708 30.7745 47.2708 30.1667V2.66667C47.2708 2.05888 47.0294 1.47598 46.5996 1.04621C46.1698 0.616443 45.5869 0.375 44.9792 0.375Z" fill="#808083"/>
<path d="M48.4167 41.6251H2.58332C1.97554 41.6251 1.39264 41.3836 0.96287 40.9539C0.533099 40.5241 0.291656 39.9412 0.291656 39.3334C0.291656 38.7256 0.533099 38.1427 0.96287 37.713C1.39264 37.2832 1.97554 37.0417 2.58332 37.0417H48.4167C49.0244 37.0417 49.6073 37.2832 50.0371 37.713C50.4669 38.1427 50.7083 38.7256 50.7083 39.3334C50.7083 39.9412 50.4669 40.5241 50.0371 40.9539C49.6073 41.3836 49.0244 41.6251 48.4167 41.6251Z" fill="#007AFF"/>
</svg>
