<svg width="30" height="31" viewBox="0 0 30 31" fill="none" xmlns="http://www.w3.org/2000/svg">
<path d="M15 3.04999C8.125 3.04999 2.5 8.66249 2.5 15.575C2.5 21.825 7.075 27.0125 13.05 27.95V19.2H9.875V15.575H13.05V12.8125C13.05 9.67499 14.9125 7.94999 17.775 7.94999C19.1375 7.94999 20.5625 8.18749 20.5625 8.18749V11.275H18.9875C17.4375 11.275 16.95 12.2375 16.95 13.225V15.575H20.425L19.8625 19.2H16.95V27.95C19.8955 27.4848 22.5777 25.9819 24.5124 23.7125C26.447 21.4433 27.5068 18.557 27.5 15.575C27.5 8.66249 21.875 3.04999 15 3.04999Z" fill="#4267B2"/>
</svg>
