<svg width="31" height="31" viewBox="0 0 31 31" fill="none" xmlns="http://www.w3.org/2000/svg">
<path d="M28.4376 15.8019C28.4376 14.9094 28.3645 14.0131 28.2107 13.1356H15.7607V18.1887H22.8895C22.7424 18.9974 22.4328 19.7678 21.9793 20.4533C21.5259 21.1388 20.938 21.7251 20.2514 22.1769V25.4581H24.5057C27.0032 23.1706 28.4376 19.7956 28.4376 15.8019Z" fill="#4285F4"/>
<path d="M15.7625 28.625C19.3213 28.625 22.3231 27.4625 24.5094 25.4562L20.2569 22.1769C19.0737 22.9775 17.5456 23.4312 15.7663 23.4312C12.3238 23.4312 9.40438 21.1212 8.35625 18.0162H3.96875V21.3969C5.07425 23.5742 6.76172 25.4024 8.84369 26.6784C10.9257 27.9543 13.3206 28.6282 15.7625 28.625Z" fill="#34A853"/>
<path d="M8.35063 18.0162C7.79771 16.3868 7.79771 14.6206 8.35063 12.9912V9.6106H3.96688C3.04371 11.4379 2.56274 13.4565 2.56274 15.5037C2.56274 17.551 3.04371 19.5696 3.96688 21.3968L8.35063 18.0162Z" fill="#FBBC04"/>
<path d="M15.7625 7.56872C17.6424 7.53824 19.4596 8.24492 20.825 9.53747L24.5938 5.78935C22.1986 3.55821 19.0356 2.33601 15.7625 2.37685C13.3199 2.37375 10.9244 3.04825 8.8423 4.32531C6.76019 5.60238 5.07314 7.43197 3.96875 9.6106L8.34875 12.9875C9.39125 9.87872 12.3162 7.56872 15.7587 7.56872H15.7625Z" fill="#EA4335"/>
</svg>
