<svg width="16" height="22" viewBox="0 0 16 22" fill="none" xmlns="http://www.w3.org/2000/svg">
<path d="M7.83337 0.5C3.51529 0.5 0.00235367 4.01435 0.00235367 8.33413C0.00235367 14.7703 7.0539 21.0547 7.35419 21.3191C7.49108 21.4397 7.66219 21.5001 7.83337 21.5001C8.00456 21.5001 8.17567 21.4398 8.31263 21.3191C8.61278 21.0548 15.6644 14.7704 15.6644 8.33413C15.6644 4.01435 12.1515 0.5 7.83337 0.5ZM7.83337 19.781C6.27435 18.2703 1.45256 13.2032 1.45256 8.33413C1.45256 4.81405 4.31499 1.9502 7.83337 1.9502C11.3518 1.9502 14.2142 4.81405 14.2142 8.33413C14.2142 13.2032 9.3924 18.2702 7.83337 19.781Z" fill="black" fill-opacity="0.47"/>
<path d="M7.83337 4.68457C5.83427 4.68457 4.20794 6.32172 4.20794 8.33404C4.20794 10.3464 5.83427 11.9835 7.83337 11.9835C9.83248 11.9835 11.4588 10.3464 11.4588 8.33404C11.4588 6.32172 9.83248 4.68457 7.83337 4.68457ZM7.83337 10.5333C6.6339 10.5333 5.65807 9.54674 5.65807 8.33404C5.65807 7.12142 6.6339 6.13477 7.83337 6.13477C9.03285 6.13477 10.0087 7.12135 10.0087 8.33404C10.0087 9.54674 9.03285 10.5333 7.83337 10.5333Z" fill="black" fill-opacity="0.47"/>
</svg>
