<svg width="35" height="36" viewBox="0 0 35 36" fill="none" xmlns="http://www.w3.org/2000/svg">
<path d="M14.8684 1.18918C15.662 0.708331 16.5721 0.454102 17.5 0.454102C18.4279 0.454102 19.338 0.708331 20.1316 1.18918L31.9806 8.37078C32.7272 8.82322 33.3447 9.46052 33.7732 10.2212C34.2018 10.9818 34.427 11.8401 34.4271 12.7131V13.9861C34.4271 14.435 34.2488 14.8655 33.9313 15.183C33.6139 15.5004 33.1833 15.6788 32.7344 15.6788C32.2854 15.6788 31.8549 15.5004 31.5375 15.183C31.22 14.8655 31.0417 14.435 31.0417 13.9861V12.7131C31.042 12.4219 30.9671 12.1356 30.8244 11.8818C30.6817 11.6279 30.4759 11.4152 30.2269 11.2642L18.378 4.08484C18.1133 3.92427 17.8096 3.83936 17.5 3.83936C17.1904 3.83936 16.8867 3.92427 16.6221 4.08484L4.7731 11.2642C4.52413 11.4152 4.31833 11.6279 4.1756 11.8818C4.03287 12.1356 3.95804 12.4219 3.95834 12.7131V24.2868C3.95804 24.578 4.03287 24.8643 4.1756 25.1181C4.31833 25.372 4.52413 25.5847 4.7731 25.7357L13.8641 31.2427C14.0542 31.3579 14.2198 31.5096 14.3513 31.6888C14.4828 31.8681 14.5778 32.0716 14.6307 32.2875C14.6836 32.5035 14.6935 32.7278 14.6597 32.9475C14.626 33.1673 14.5492 33.3783 14.4339 33.5684C14.3187 33.7586 14.167 33.9241 13.9878 34.0557C13.8085 34.1872 13.6051 34.2821 13.3891 34.3351C13.1731 34.388 12.9488 34.3978 12.7291 34.3641C12.5093 34.3303 12.2983 34.2536 12.1082 34.1383L3.01945 28.6314C2.27212 28.1785 1.65428 27.5405 1.22569 26.779C0.797102 26.0175 0.572264 25.1583 0.572923 24.2845V12.7131C0.573041 11.8401 0.798247 10.9818 1.2268 10.2212C1.65535 9.46052 2.27277 8.82322 3.01945 8.37078L14.8684 1.18918Z" fill="#007AFF"/>
<path fill-rule="evenodd" clip-rule="evenodd" d="M25.9613 16.9764L25.9635 16.8817V16.2362C25.9635 15.7872 25.7852 15.3567 25.4678 15.0392C25.1503 14.7218 24.7198 14.5435 24.2708 14.5435C23.8219 14.5435 23.3914 14.7218 23.0739 15.0392C22.7565 15.3567 22.5781 15.7872 22.5781 16.2362V16.8817L22.5804 16.9764C21.5188 17.192 20.5088 17.6104 19.6057 18.2087C19.5838 18.1855 19.5612 18.163 19.538 18.141L19.0844 17.6829C18.7635 17.3839 18.3391 17.2211 17.9006 17.2288C17.462 17.2366 17.0436 17.4142 16.7335 17.7243C16.4234 18.0345 16.2457 18.4529 16.238 18.8914C16.2302 19.3299 16.393 19.7543 16.692 20.0752L17.1457 20.5334L17.2134 20.5966C16.6266 21.4858 16.1978 22.4924 15.9788 23.5735C15.9488 23.5721 15.9187 23.5713 15.8885 23.5712H15.2431C14.7941 23.5712 14.3636 23.7496 14.0461 24.067C13.7287 24.3845 13.5504 24.815 13.5504 25.2639C13.5504 25.7129 13.7287 26.1434 14.0461 26.4609C14.3636 26.7783 14.7941 26.9566 15.2431 26.9566H15.8885L15.9743 26.9544C16.1932 28.0377 16.6198 29.0443 17.2089 29.9336C17.1872 29.9533 17.1662 29.9736 17.1457 29.9945L16.6898 30.4504C16.3908 30.7713 16.228 31.1957 16.2357 31.6342C16.2435 32.0727 16.4211 32.4912 16.7312 32.8013C17.0414 33.1114 17.4598 33.2891 17.8983 33.2968C18.3368 33.3045 18.7612 33.1418 19.0821 32.8428L19.5403 32.3869C19.5596 32.3678 19.5784 32.3482 19.5967 32.3282C20.4882 32.9172 21.4971 33.3438 22.5804 33.565L22.5781 33.6462V34.2917C22.5781 34.7407 22.7565 35.1712 23.0739 35.4886C23.3914 35.8061 23.8219 35.9844 24.2708 35.9844C24.7198 35.9844 25.1503 35.8061 25.4678 35.4886C25.7852 35.1712 25.9635 34.7407 25.9635 34.2917V33.6462V33.565C27.0469 33.3461 28.0535 32.9172 28.9427 32.3282L29.0014 32.3869L29.4573 32.845C29.7767 33.1532 30.2044 33.3236 30.6482 33.3196C31.092 33.3155 31.5165 33.1373 31.8302 32.8233C32.1439 32.5093 32.3217 32.0847 32.3253 31.6408C32.329 31.197 32.1582 30.7695 31.8497 30.4504L31.396 29.9945C31.3755 29.9743 31.3544 29.9548 31.3328 29.9358C31.9219 29.0443 32.3484 28.0355 32.5674 26.9544H33.2986C33.7476 26.9544 34.1781 26.7761 34.4955 26.4586C34.813 26.1412 34.9913 25.7106 34.9913 25.2617C34.9913 24.8128 34.813 24.3822 34.4955 24.0648C34.1781 23.7473 33.7476 23.569 33.2986 23.569H32.6531L32.5629 23.5735C32.3467 22.511 31.9275 21.5002 31.3283 20.5966L31.396 20.5334L31.8519 20.0775C32.1604 19.7584 32.3312 19.3309 32.3276 18.8871C32.3239 18.4432 32.1461 18.0186 31.8324 17.7046C31.5187 17.3906 31.0943 17.2124 30.6504 17.2083C30.2066 17.2043 29.7789 17.3747 29.4596 17.6829L29.0014 18.1388L28.9359 18.2065C28.0327 17.6089 27.0227 17.1913 25.9613 16.9764ZM24.2708 20.1926C23.6037 20.1917 22.943 20.3224 22.3265 20.5773C21.71 20.8322 21.1498 21.2062 20.6781 21.6779C20.2063 22.1497 19.8323 22.7098 19.5774 23.3263C19.3226 23.9429 19.1918 24.6036 19.1927 25.2707C19.1918 25.9378 19.3226 26.5986 19.5774 27.2151C19.8323 27.8316 20.2063 28.3918 20.6781 28.8635C21.1498 29.3352 21.71 29.7092 22.3265 29.9641C22.943 30.219 23.6037 30.3497 24.2708 30.3488C24.938 30.3497 25.5987 30.219 26.2152 29.9641C26.8317 29.7092 27.3919 29.3352 27.8636 28.8635C28.3353 28.3918 28.7093 27.8316 28.9642 27.2151C29.2191 26.5986 29.3499 25.9378 29.349 25.2707C29.3499 24.6036 29.2191 23.9429 28.9642 23.3263C28.7093 22.7098 28.3353 22.1497 27.8636 21.6779C27.3919 21.2062 26.8317 20.8322 26.2152 20.5773C25.5987 20.3224 24.938 20.1917 24.2708 20.1926Z" fill="#007AFF"/>
</svg>
