<svg width="31" height="42" viewBox="0 0 31 42" fill="none" xmlns="http://www.w3.org/2000/svg">
<path d="M4.23729 3.69116H0.711212V10.8019L13.3919 18.2784V20.8108H14.8357V17.5536L2.14737 9.9782L2.10705 5.07548H4.22289L4.23729 3.69116Z" fill="#565656"/>
<path d="M16.5848 20.8434C16.6347 20.5602 16.413 20.301 16.1202 20.301H12.0805C11.7762 20.301 11.5515 20.5794 11.6216 20.8703L12.0219 22.5426C12.1554 23.0985 12.2005 23.6716 12.1573 24.2418C11.9711 26.6553 11.5227 33.9052 12.1775 41.2722C12.2053 41.5804 12.4664 41.8175 12.7823 41.8175H15.5787C15.8946 41.8175 16.1576 41.5794 16.1835 41.2693C16.3515 39.2217 16.8709 31.7461 16.2008 24.1074C16.1586 23.6303 16.1797 23.1493 16.2632 22.678L16.5848 20.8434ZM14.1003 40.4581C13.6683 40.4581 13.3179 40.1145 13.3179 39.6901C13.3179 39.2658 13.6683 38.9221 14.1003 38.9221C14.5323 38.9221 14.8827 39.2658 14.8827 39.6901C14.8818 40.1145 14.5323 40.4581 14.1003 40.4581Z" fill="#007AFF"/>
<path d="M4.48881 0.182373H29.1752C29.4344 0.182373 29.6619 0.350373 29.7339 0.595173C30.0603 1.70493 30.7986 4.90749 29.7339 8.40285C29.66 8.64573 29.4334 8.81373 29.1752 8.81373H4.50321C4.23441 8.81373 4.00017 8.63325 3.93777 8.37693C3.65169 7.20957 3.00465 3.88125 3.92625 0.605733C3.99633 0.357093 4.22577 0.182373 4.48881 0.182373Z" fill="#B2B2B2"/>
</svg>
