<svg width="55" height="52" viewBox="0 0 55 52" fill="none" xmlns="http://www.w3.org/2000/svg">
<path d="M35.5106 29.4115C35.5106 30.4401 36.3444 31.274 37.3732 31.274H52.1691C53.1976 31.274 54.0317 30.4401 54.0317 29.4115V15.2764H35.5106V29.4115Z" fill="#808083"/>
<path d="M28.4956 39.3903C23.4376 39.3903 19.2498 35.6032 18.6091 30.7151H5.9574C6.63499 42.564 16.4843 51.9962 28.4956 51.9962C39.408 51.9962 48.5356 44.2108 50.6226 33.9012H37.3968C35.752 37.1538 32.3817 39.3903 28.4956 39.3903Z" fill="#007AFF"/>
<path d="M53.1374 0.00366211H36.4046C35.3761 0.00366211 34.5422 0.837551 34.5422 1.86625V11.0857C34.5422 12.1142 35.3761 12.9464 36.4048 12.9464H53.1376C54.1661 12.9464 55.0002 12.1142 55 11.0855V1.86607C55 0.837551 54.1661 0.00366211 53.1374 0.00366211Z" fill="#808083"/>
<path d="M18.5213 28.1077V20.5305C18.5213 20.422 18.5063 17.8411 17.215 15.2575C15.9678 12.762 13.3187 9.78735 7.7813 9.78735H1.86259C0.833889 9.78717 0 10.6212 0 11.6498V20.5305C0 21.559 0.833889 22.3931 1.86259 22.3931H4.82185C5.11074 22.3931 5.87704 22.3931 5.91889 23.5112V28.1077H18.5213Z" fill="#808083"/>
</svg>
