<svg width="29" height="48" viewBox="0 0 29 48" fill="none" xmlns="http://www.w3.org/2000/svg">
<path d="M23.6521 11.3903V1.26881C23.6521 0.568125 23.0846 0 22.3846 0H20.3568C19.6568 0 19.0886 0.568125 19.0886 1.26881V11.3903H9.91126V1.26881C9.91135 0.568125 9.34388 0 8.64319 0H6.61613C5.91544 0 5.34798 0.568125 5.34798 1.26881V11.3903H0.0596313V15.6992H28.9405V11.3903H23.6521Z" fill="#007AFF"/>
<path d="M0.0595093 22.9976C0.0595093 28.185 3.1482 32.6486 7.58492 34.6588V37.4431C7.58492 38.78 8.66941 39.8644 10.0064 39.8644H18.9935C20.3312 39.8644 21.415 38.78 21.415 37.4431V34.6588C25.8524 32.6487 28.9404 28.185 28.9404 22.9976V17.6567H0.0595093V22.9976Z" fill="#808083"/>
<path d="M17.2458 41.6594H11.7542V48.0001H17.2458V41.6594Z" fill="#808083"/>
</svg>
