<svg width="18" height="18" viewBox="0 0 18 18" fill="none" xmlns="http://www.w3.org/2000/svg">
<path fill-rule="evenodd" clip-rule="evenodd" d="M3.16671 8.29175C3.16671 5.55334 5.38664 3.33341 8.12505 3.33341C10.8635 3.33341 13.0834 5.55334 13.0834 8.29175C13.0834 11.0302 10.8635 13.2501 8.12505 13.2501C5.38664 13.2501 3.16671 11.0302 3.16671 8.29175ZM8.12505 1.91675C4.60423 1.91675 1.75005 4.77093 1.75005 8.29175C1.75005 11.8126 4.60423 14.6667 8.12505 14.6667C9.63025 14.6667 11.0136 14.1451 12.1043 13.2727L14.7075 15.8759C14.9841 16.1525 15.4326 16.1525 15.7092 15.8759C15.9858 15.5993 15.9858 15.1508 15.7092 14.8742L13.106 12.271C13.9784 11.1803 14.5 9.79696 14.5 8.29175C14.5 4.77093 11.6459 1.91675 8.12505 1.91675Z" fill="white"/>
</svg>
