<svg width="41" height="32" viewBox="0 0 41 32" fill="none" xmlns="http://www.w3.org/2000/svg">
<path d="M37.46 11.68L36.1 11.34L34.84 6.88C34.5977 6.04914 34.0924 5.31929 33.4 4.8C32.7076 4.28071 31.8655 4 31 4H24.5C24.5 2.93913 24.0786 1.92172 23.3284 1.17157C22.5783 0.421427 21.5609 0 20.5 0H4.5C3.43913 0 2.42172 0.421427 1.67157 1.17157C0.921427 1.92172 0.5 2.93913 0.5 4V24C0.5 25.0609 0.921427 26.0783 1.67157 26.8284C2.42172 27.5786 3.43913 28 4.5 28H36.5C37.5609 28 38.5783 27.5786 39.3284 26.8284C40.0786 26.0783 40.5 25.0609 40.5 24V15.56C40.4993 14.6667 40.1996 13.7993 39.6487 13.0961C39.0977 12.3929 38.3272 11.8944 37.46 11.68Z" fill="#808083"/>
<path d="M15.5 27C15.5 27.9889 15.2068 28.9556 14.6574 29.7779C14.1079 30.6001 13.3271 31.241 12.4134 31.6194C11.4998 31.9978 10.4945 32.0969 9.52455 31.9039C8.55465 31.711 7.66373 31.2348 6.96447 30.5355C6.26521 29.8363 5.789 28.9454 5.59608 27.9755C5.40315 27.0055 5.50217 26.0002 5.8806 25.0866C6.25904 24.173 6.89991 23.3921 7.72215 22.8427C8.5444 22.2932 9.5111 22 10.5 22C11.8261 22 13.0979 22.5268 14.0355 23.4645C14.9732 24.4021 15.5 25.6739 15.5 27ZM30.5 22C29.5111 22 28.5444 22.2932 27.7222 22.8427C26.8999 23.3921 26.259 24.173 25.8806 25.0866C25.5022 26.0002 25.4031 27.0055 25.5961 27.9755C25.789 28.9454 26.2652 29.8363 26.9645 30.5355C27.6637 31.2348 28.5546 31.711 29.5245 31.9039C30.4945 32.0969 31.4998 31.9978 32.4134 31.6194C33.3271 31.241 34.1079 30.6001 34.6574 29.7779C35.2068 28.9556 35.5 27.9889 35.5 27C35.5 25.6739 34.9732 24.4021 34.0355 23.4645C33.0979 22.5268 31.8261 22 30.5 22Z" fill="#007AFF"/>
</svg>
