<svg width="49" height="46" viewBox="0 0 49 46" fill="none" xmlns="http://www.w3.org/2000/svg">
<path d="M43.1552 2.03158C39.4682 -0.0964459 34.3855 -0.186131 29.8933 1.79809C25.7366 3.63496 22.7402 7.6824 20.969 10.7241C20.1718 10.5297 19.3186 10.9088 18.9484 11.6803C18.5942 12.418 18.8011 13.2739 19.3905 13.7853C19.229 14.1449 19.1304 14.3863 19.0932 14.4804L10.4903 33.3763C9.62292 32.9767 8.5895 33.3328 8.16159 34.1948C7.7257 35.0728 8.08351 36.1383 8.96152 36.575L9.0201 36.6043L7.08481 40.8578H2.2756C1.29547 40.8578 0.5 41.6533 0.5 42.6334C0.5 43.6135 1.29547 44.409 2.2756 44.409H11.1536C12.1337 44.409 12.9292 43.6135 12.9292 42.6334C12.9292 41.6533 12.1337 40.8578 11.1536 40.8578H10.9867L12.218 38.1527C12.3805 38.1997 12.5448 38.2317 12.709 38.2317C13.3615 38.2317 13.9901 37.8703 14.3009 37.2462C14.7075 36.4277 14.418 35.4537 13.6669 34.9708L22.5814 15.3904C22.822 15.5014 23.0732 15.5565 23.3227 15.5565C23.9841 15.5565 24.6188 15.1854 24.9243 14.5488C25.3308 13.7027 25.0006 12.6995 24.1962 12.2432C25.7152 9.68361 28.147 6.4529 31.3297 5.04662C34.7513 3.53469 38.6967 3.55781 41.3805 5.10697C43.3541 6.24605 44.4878 8.05804 44.7523 10.4941C45.2477 15.0566 44.8277 18.1159 43.5077 19.5887C43.386 19.7246 43.252 19.8409 43.1153 19.9509V23.9256C44.209 23.5562 45.2593 22.9535 46.1506 21.9601C48.2032 19.674 48.9001 15.7978 48.2831 10.1114C47.9015 6.5878 46.0796 3.71843 43.1552 2.03158Z" fill="#808083"/>
<path d="M38.0984 31.9798C39.2569 31.9798 40.3525 32.2435 41.3388 32.7033V24.3394V20.7367V18.6628C41.3388 17.6819 41.432 17.7751 40.4511 17.7751H36.9736C35.9926 17.7751 26.098 18.5892 23.4843 31.5093L21.8072 42.1894C21.8072 43.1704 22.6019 44.4089 23.5828 44.4089H32.009C30.995 43.103 30.3852 41.4694 30.3852 39.6929C30.3852 35.4395 33.8458 31.9798 38.0984 31.9798Z" fill="#007AFF"/>
<path d="M42.2267 35.435C41.9541 35.1713 41.6576 34.9334 41.3389 34.7248C40.4059 34.114 39.2934 33.7554 38.0985 33.7554C34.8242 33.7554 32.1609 36.4188 32.1609 39.693C32.1609 41.6159 33.0842 43.324 34.5065 44.409C35.0019 44.7871 35.5567 45.0881 36.156 45.2967C36.7659 45.5089 37.4177 45.6297 38.0986 45.6297C38.7796 45.6297 39.4312 45.5089 40.0411 45.2967C40.6697 45.0783 41.2512 44.7578 41.7643 44.3539C42.2473 43.9739 42.6726 43.5238 43.018 43.0142C43.6607 42.0651 44.0372 40.9217 44.0372 39.6921C44.0372 38.5291 43.6963 37.4468 43.1166 36.5306C42.8614 36.131 42.5649 35.7627 42.2267 35.435ZM38.0984 36.7144C39.7426 36.7144 41.0761 38.0478 41.0761 39.6921C41.0761 41.3363 39.7426 42.6698 38.0984 42.6698C36.4541 42.6698 35.1207 41.3363 35.1207 39.6921C35.1207 38.0478 36.4533 36.7144 38.0984 36.7144Z" fill="#808083"/>
</svg>
